<svg width="65" height="18" viewBox="0 0 65 18" fill="none" xmlns="http://www.w3.org/2000/svg">
<path d="M60.6984 13.1428C57.6036 13.1454 57.3768 13.4322 56.9936 13.7581C56.5321 14.1518 55.6691 14.6654 54.5167 14.6654C52.6239 14.6654 51.3438 13.0854 51.2421 11.9539C51.263 11.9539 51.2812 11.9565 51.2995 11.9565C51.3568 11.9591 51.4194 11.9644 51.482 11.9644C51.5185 11.9644 55.179 12.0712 56.9857 12.0712H58.8108C61.0425 12.0712 64.0095 11.5681 64.0095 7.21668C64.0095 3.69177 61.3345 0.302429 57.7001 0.302429C54.1126 0.305036 44.9614 4.92757 44.9614 11.1483C44.9614 14.8635 49.8681 18 55.6769 18C59.3087 18 63.9443 15.9168 63.9443 14.2821C63.9443 13.2549 61.7803 13.1428 60.6984 13.1428ZM57.9608 6.81256C57.9608 8.14483 57.9191 8.26998 56.5034 8.26998H51.847C52.4753 6.55445 55.0251 4.14542 56.7407 4.47131C57.4029 4.59646 57.9608 5.73319 57.9608 6.81256Z" fill="#EA1C0A"/>
<path d="M13.1115 0C5.49854 0 3.26158 4.2836 2.73754 5.55851C2.51332 6.10341 2.27868 6.65613 2.04664 7.20364C1.00637 9.65961 0 12.0321 0 13.4426C0 17.2752 4.5365 17.2752 6.61442 17.2752H6.65092H6.73435C10.9163 17.2752 14.6185 17.2752 17.3951 11.9357C18.0652 10.6503 20.1457 6.02259 20.1457 3.91599C20.1457 0.492757 16.2506 0 13.1115 0ZM10.5382 12.8664C10.1185 13.3044 9.38064 13.3044 8.90352 13.3044H8.86702C8.84617 13.3044 8.82792 13.3044 8.80706 13.3044C8.78099 13.3044 8.75492 13.3044 8.72884 13.3044C7.9858 13.3071 7.44351 13.3097 7.44351 12.4832C7.44351 11.1978 8.32734 6.58313 9.65961 4.73464C10.0168 4.24188 10.8016 4.16106 11.3308 4.16106C12.6683 4.16106 12.7204 4.40614 12.7204 5.1179C12.7204 6.11645 11.7089 11.6463 10.5382 12.8664Z" fill="#EA1C0A"/>
<path d="M39.9948 0.51886C38.0055 0.51886 35.8729 1.70773 33.9879 2.75582C32.5018 3.5823 31.1721 4.32274 30.1944 4.32274C28.8804 4.32274 28.8361 2.9279 28.8361 2.51596C28.8361 1.56434 28.8309 1.57477 28.8309 1.57477C28.2651 1.26973 27.1336 1.23062 26.5522 1.23062C25.8821 1.23062 25.3737 1.32448 25.126 1.37141C25.0817 1.37923 25.0426 1.38705 25.0165 1.38966C24.6437 1.44702 24.5707 1.5852 24.4977 1.74945C22.777 5.65501 20.2949 12.8613 19.8178 14.8088L19.5571 15.8726C19.4659 16.248 19.4789 16.4253 19.7918 16.5869C19.8908 16.6391 20.9415 17.1605 21.927 17.1605C22.7222 17.1605 23.4053 17.051 23.872 16.5322C23.945 16.4513 24.0336 16.3497 24.1405 16.2297C26.0751 14.0475 33.1666 6.04869 37.1217 6.04869C37.81 6.04869 38.0133 6.56752 38.0133 7.25582C38.0133 8.34301 36.4751 12.8404 35.7086 15.0852C35.5887 15.4372 35.487 15.7344 35.4114 15.956C35.3201 16.2297 35.4557 16.4175 35.5652 16.5061C36.0971 16.9311 37.1843 17.2752 38.6286 17.2752C39.4264 17.2752 40.0417 17.1553 40.3624 16.3106C40.8526 15.0226 43.83 6.44759 43.83 3.9447C43.8274 2.45078 43.1234 0.51886 39.9948 0.51886Z" fill="#EA1C0A"/>
</svg>
